<svg width="183" height="39" viewBox="0 0 183 39" fill="none" xmlns="http://www.w3.org/2000/svg">
<rect x="0.810425" y="0.871094" width="182.19" height="38" rx="8" fill="url(#paint0_linear_1_2463)"/>
<rect x="0.810425" y="0.871094" width="182.19" height="38" rx="8" fill="#18181C"/>
<mask id="mask0_1_2463" style="mask-type:luminance" maskUnits="userSpaceOnUse" x="16" y="10" width="20" height="20">
<path d="M26.4052 29.4659C31.7043 29.4659 36 25.1701 36 19.871C36 14.572 31.7043 10.2762 26.4052 10.2762C21.1062 10.2762 16.8104 14.572 16.8104 19.871C16.8104 25.1701 21.1062 29.4659 26.4052 29.4659Z" fill="white"/>
</mask>
<g mask="url(#mask0_1_2463)">
<path d="M18.3369 10.2762V22.0517H22.6327L26.4052 15.5098H36V10.2762H18.3369Z" fill="#DB4437"/>
<path d="M18.3369 10.2762V22.0517H22.6327L26.4052 15.5098H36V10.2762H18.3369Z" fill="url(#paint1_linear_1_2463)"/>
<path d="M16.8104 29.4659H25.9473L30.1995 25.2137V22.0517H22.6109L16.8104 12.0753V29.4659Z" fill="#0F9D58"/>
<path d="M16.8104 29.4659H25.9473L30.1995 25.2137V22.0517H22.6109L16.8104 12.0753V29.4659Z" fill="url(#paint2_linear_1_2463)"/>
<path d="M26.4053 15.5101L30.1778 22.052L25.9691 29.4662H36.0001V15.5101H26.4053Z" fill="#FFCD40"/>
<path d="M26.4053 15.5101L30.1778 22.052L25.9691 29.4662H36.0001V15.5101H26.4053Z" fill="url(#paint3_linear_1_2463)"/>
<path d="M22.7309 22.0188L18.3369 14.6809L22.5891 22.0733L22.7309 22.0188Z" fill="#3E2723" fill-opacity="0.1"/>
<path d="M30.0907 22.1929L30.0035 22.1493L25.9366 29.4544L30.1125 22.1493L30.0907 22.1929Z" fill="#263238" fill-opacity="0.1"/>
<path d="M26.4051 15.5101V17.7998L34.9532 15.5101H26.4051Z" fill="url(#paint4_radial_1_2463)"/>
<path d="M18.3369 14.6919L24.5735 20.9285L22.6327 22.0515L18.3369 14.6919Z" fill="url(#paint5_radial_1_2463)"/>
<path d="M25.9474 29.4655L28.2371 20.9283L30.1778 22.0514L25.9474 29.4655Z" fill="url(#paint6_radial_1_2463)"/>
<path d="M26.4052 24.2327C28.8139 24.2327 30.7665 22.2801 30.7665 19.8714C30.7665 17.4627 28.8139 15.5101 26.4052 15.5101C23.9965 15.5101 22.0439 17.4627 22.0439 19.8714C22.0439 22.2801 23.9965 24.2327 26.4052 24.2327Z" fill="#F1F1F1"/>
<path d="M26.4052 23.3601C28.3322 23.3601 29.8943 21.798 29.8943 19.8711C29.8943 17.9442 28.3322 16.3821 26.4052 16.3821C24.4783 16.3821 22.9162 17.9442 22.9162 19.8711C22.9162 21.798 24.4783 23.3601 26.4052 23.3601Z" fill="#4285F4"/>
<path d="M26.4052 29.4659C31.7043 29.4659 36 25.1701 36 19.871C36 14.572 31.7043 10.2762 26.4052 10.2762C21.1062 10.2762 16.8104 14.572 16.8104 19.871C16.8104 25.1701 21.1062 29.4659 26.4052 29.4659Z" fill="url(#paint7_radial_1_2463)"/>
<path d="M30.1777 22.0516C29.7944 22.7125 29.2441 23.2611 28.582 23.6424C27.9199 24.0238 27.1693 24.2245 26.4052 24.2245C25.6412 24.2245 24.8905 24.0238 24.2285 23.6424C23.5664 23.2611 23.0161 22.7125 22.6327 22.0516L16.8104 12.1842L22.6327 22.1606C23.0161 22.8215 23.5664 23.3701 24.2285 23.7515C24.8905 24.1328 25.6412 24.3335 26.4052 24.3335C27.1693 24.3335 27.9199 24.1328 28.582 23.7515C29.2441 23.3701 29.7944 22.8215 30.1777 22.1606V22.0516Z" fill="white" fill-opacity="0.1"/>
<path d="M26.5143 15.5101H26.4597C27.6164 15.5101 28.7257 15.9696 29.5436 16.7875C30.3615 17.6054 30.821 18.7147 30.821 19.8714C30.821 21.0281 30.3615 22.1374 29.5436 22.9553C28.7257 23.7732 27.6164 24.2327 26.4597 24.2327H26.5143C28.913 24.2327 30.8755 22.2701 30.8755 19.8714C30.8755 17.4727 28.913 15.5101 26.5143 15.5101ZM26.4052 29.3572C28.9405 29.3572 31.3728 28.3538 33.1706 26.5662C34.9684 24.7786 35.9856 22.3521 36 19.8169V19.8714C36 22.4161 34.9892 24.8566 33.1898 26.656C31.3904 28.4553 28.9499 29.4662 26.4052 29.4662C23.8605 29.4662 21.4201 28.4553 19.6207 26.656C17.8213 24.8566 16.8104 22.4161 16.8104 19.8714V19.8169C16.8248 22.3521 17.8421 24.7786 19.6399 26.5662C21.4377 28.3538 23.8699 29.3572 26.4052 29.3572Z" fill="#3E2723" fill-opacity="0.1"/>
<path d="M30.2213 22.1934C30.5258 21.671 30.7163 21.0899 30.7802 20.4886C30.8441 19.8873 30.78 19.2792 30.592 18.7044C30.7616 19.2602 30.8123 19.8454 30.7409 20.4221C30.6695 20.9988 30.4777 21.554 30.1777 22.0517L26.0781 29.4659L30.2431 22.2152L30.2213 22.1934ZM26.4052 10.3853C28.9405 10.3852 31.3728 11.3886 33.1706 13.1762C34.9684 14.9638 35.9856 17.3903 36 19.9256V19.871C36 17.3263 34.9892 14.8859 33.1898 13.0865C31.3904 11.2871 28.9499 10.2762 26.4052 10.2762C23.8605 10.2762 21.4201 11.2871 19.6207 13.0865C17.8213 14.8859 16.8104 17.3263 16.8104 19.871V19.9256C16.8248 17.3903 17.8421 14.9638 19.6399 13.1762C21.4377 11.3886 23.8699 10.3852 26.4052 10.3853Z" fill="white" fill-opacity="0.2"/>
<path d="M26.4052 15.4004C24.0065 15.4004 22.0439 17.363 22.0439 19.7617V19.8707C22.0439 17.472 24.0065 15.5094 26.4052 15.5094H36V15.4004H26.4052Z" fill="#3E2723" fill-opacity="0.2"/>
</g>
<path d="M45.092 24.8711V15.0011H46.898V24.8711H45.092ZM48.9305 24.8711V19.5651C48.9305 19.2758 48.9212 18.9818 48.9025 18.6831C48.8839 18.3844 48.8559 18.0904 48.8185 17.8011H50.5125L50.6525 19.2011H50.4845C50.7085 18.7064 51.0399 18.3284 51.4785 18.0671C51.9172 17.7964 52.4259 17.6611 53.0045 17.6611C53.8352 17.6611 54.4605 17.8944 54.8805 18.3611C55.3005 18.8278 55.5105 19.5558 55.5105 20.5451V24.8711H53.7605V20.6291C53.7605 20.0598 53.6485 19.6538 53.4245 19.4111C53.2099 19.1591 52.8832 19.0331 52.4445 19.0331C51.9032 19.0331 51.4739 19.2011 51.1565 19.5371C50.8392 19.8731 50.6805 20.3211 50.6805 20.8811V24.8711H48.9305ZM59.8861 25.0111C59.2794 25.0111 58.7194 24.9411 58.2061 24.8011C57.7021 24.6518 57.2774 24.4464 56.9321 24.1851L57.4221 23.0091C57.7768 23.2518 58.1688 23.4384 58.5981 23.5691C59.0274 23.6998 59.4614 23.7651 59.9001 23.7651C60.3668 23.7651 60.7121 23.6858 60.9361 23.5271C61.1694 23.3684 61.2861 23.1538 61.2861 22.8831C61.2861 22.6684 61.2114 22.5004 61.0621 22.3791C60.9221 22.2484 60.6934 22.1504 60.3761 22.0851L58.9761 21.8191C58.3788 21.6884 57.9214 21.4644 57.6041 21.1471C57.2961 20.8298 57.1421 20.4144 57.1421 19.9011C57.1421 19.4624 57.2588 19.0751 57.4921 18.7391C57.7348 18.4031 58.0754 18.1418 58.5141 17.9551C58.9621 17.7591 59.4848 17.6611 60.0821 17.6611C60.6048 17.6611 61.0948 17.7311 61.5521 17.8711C62.0188 18.0111 62.4108 18.2211 62.7281 18.5011L62.2241 19.6351C61.9348 19.4018 61.6034 19.2198 61.2301 19.0891C60.8568 18.9584 60.4928 18.8931 60.1381 18.8931C59.6528 18.8931 59.2981 18.9818 59.0741 19.1591C58.8501 19.3271 58.7381 19.5464 58.7381 19.8171C58.7381 20.0224 58.8034 20.1951 58.9341 20.3351C59.0741 20.4658 59.2888 20.5638 59.5781 20.6291L60.9781 20.8951C61.6034 21.0164 62.0748 21.2311 62.3921 21.5391C62.7188 21.8378 62.8821 22.2484 62.8821 22.7711C62.8821 23.2378 62.7561 23.6391 62.5041 23.9751C62.2521 24.3111 61.9021 24.5678 61.4541 24.7451C61.0061 24.9224 60.4834 25.0111 59.8861 25.0111ZM67.3354 25.0111C66.4954 25.0111 65.8607 24.7918 65.4314 24.3531C65.0021 23.9144 64.7874 23.2564 64.7874 22.3791V19.1171H63.4294V17.8011H64.7874V15.9951L66.5374 15.5471V17.8011H68.4274V19.1171H66.5374V22.2671C66.5374 22.7524 66.6307 23.0931 66.8174 23.2891C67.0041 23.4851 67.2607 23.5831 67.5874 23.5831C67.7647 23.5831 67.9141 23.5691 68.0354 23.5411C68.1661 23.5131 68.2921 23.4758 68.4134 23.4291V24.8151C68.2547 24.8804 68.0774 24.9271 67.8814 24.9551C67.6947 24.9924 67.5127 25.0111 67.3354 25.0111ZM72.3461 25.0111C71.7301 25.0111 71.1888 24.8664 70.7221 24.5771C70.2554 24.2784 69.8914 23.8538 69.6301 23.3031C69.3688 22.7524 69.2381 22.0944 69.2381 21.3291C69.2381 20.5638 69.3688 19.9104 69.6301 19.3691C69.8914 18.8184 70.2554 18.3984 70.7221 18.1091C71.1888 17.8104 71.7301 17.6611 72.3461 17.6611C72.9434 17.6611 73.4661 17.8104 73.9141 18.1091C74.3714 18.3984 74.6748 18.7904 74.8241 19.2851H74.6701L74.8241 17.8011H76.5041C76.4761 18.0904 76.4481 18.3844 76.4201 18.6831C76.4014 18.9818 76.3921 19.2758 76.3921 19.5651V24.8711H74.6561L74.6421 23.4151H74.8101C74.6608 23.9004 74.3574 24.2878 73.9001 24.5771C73.4428 24.8664 72.9248 25.0111 72.3461 25.0111ZM72.8361 23.6671C73.3868 23.6671 73.8301 23.4758 74.1661 23.0931C74.5021 22.7011 74.6701 22.1131 74.6701 21.3291C74.6701 20.5451 74.5021 19.9618 74.1661 19.5791C73.8301 19.1964 73.3868 19.0051 72.8361 19.0051C72.2854 19.0051 71.8421 19.1964 71.5061 19.5791C71.1701 19.9618 71.0021 20.5451 71.0021 21.3291C71.0021 22.1131 71.1654 22.7011 71.4921 23.0931C71.8281 23.4758 72.2761 23.6671 72.8361 23.6671ZM78.2977 24.8711V14.5671H80.0477V24.8711H78.2977ZM81.9481 24.8711V14.5671H83.6981V24.8711H81.9481ZM92.3243 24.8711L88.8383 15.0011H90.7143L93.4023 23.0931H92.8423L95.7403 15.0011H97.0843L99.7723 23.0931H99.2543L102.068 15.0011H103.832L100.318 24.8711H98.8203L96.2163 17.2831H96.5243L93.8223 24.8711H92.3243ZM105.136 24.8711V17.8011H106.886V24.8711H105.136ZM105.038 16.4711V14.7631H106.984V16.4711H105.038ZM108.506 24.8711V23.7231L112.93 18.6971V19.1171H108.506V17.8011H114.512V18.9491L110.046 24.0171L110.032 23.5551H114.666V24.8711H108.506ZM118.817 25.0111C118.201 25.0111 117.659 24.8664 117.193 24.5771C116.726 24.2784 116.362 23.8538 116.101 23.3031C115.839 22.7524 115.709 22.0944 115.709 21.3291C115.709 20.5638 115.839 19.9104 116.101 19.3691C116.362 18.8184 116.726 18.3984 117.193 18.1091C117.659 17.8104 118.201 17.6611 118.817 17.6611C119.414 17.6611 119.937 17.8104 120.385 18.1091C120.842 18.3984 121.145 18.7904 121.295 19.2851H121.141L121.295 17.8011H122.975C122.947 18.0904 122.919 18.3844 122.891 18.6831C122.872 18.9818 122.863 19.2758 122.863 19.5651V24.8711H121.127L121.113 23.4151H121.281C121.131 23.9004 120.828 24.2878 120.371 24.5771C119.913 24.8664 119.395 25.0111 118.817 25.0111ZM119.307 23.6671C119.857 23.6671 120.301 23.4758 120.637 23.0931C120.973 22.7011 121.141 22.1131 121.141 21.3291C121.141 20.5451 120.973 19.9618 120.637 19.5791C120.301 19.1964 119.857 19.0051 119.307 19.0051C118.756 19.0051 118.313 19.1964 117.977 19.5791C117.641 19.9618 117.473 20.5451 117.473 21.3291C117.473 22.1131 117.636 22.7011 117.963 23.0931C118.299 23.4758 118.747 23.6671 119.307 23.6671ZM124.754 24.8711V19.6071C124.754 19.3084 124.745 19.0051 124.726 18.6971C124.717 18.3891 124.694 18.0904 124.656 17.8011H126.35L126.546 19.7331H126.266C126.36 19.2664 126.514 18.8791 126.728 18.5711C126.952 18.2631 127.223 18.0344 127.54 17.8851C127.858 17.7358 128.203 17.6611 128.576 17.6611C128.744 17.6611 128.88 17.6704 128.982 17.6891C129.085 17.6984 129.188 17.7218 129.29 17.7591L129.276 19.2991C129.099 19.2244 128.945 19.1778 128.814 19.1591C128.693 19.1404 128.539 19.1311 128.352 19.1311C127.951 19.1311 127.61 19.2151 127.33 19.3831C127.06 19.5511 126.854 19.7844 126.714 20.0831C126.584 20.3818 126.518 20.7224 126.518 21.1051V24.8711H124.754ZM132.899 25.0111C132.283 25.0111 131.737 24.8664 131.261 24.5771C130.794 24.2784 130.43 23.8538 130.169 23.3031C129.908 22.7524 129.777 22.0944 129.777 21.3291C129.777 20.5638 129.908 19.9104 130.169 19.3691C130.43 18.8184 130.794 18.3984 131.261 18.1091C131.737 17.8104 132.283 17.6611 132.899 17.6611C133.487 17.6611 134.005 17.8058 134.453 18.0951C134.91 18.3751 135.214 18.7578 135.363 19.2431H135.181V14.5671H136.931V24.8711H135.209V23.3731H135.377C135.228 23.8771 134.924 24.2784 134.467 24.5771C134.019 24.8664 133.496 25.0111 132.899 25.0111ZM133.389 23.6671C133.94 23.6671 134.383 23.4758 134.719 23.0931C135.055 22.7011 135.223 22.1131 135.223 21.3291C135.223 20.5451 135.055 19.9618 134.719 19.5791C134.383 19.1964 133.94 19.0051 133.389 19.0051C132.838 19.0051 132.39 19.1964 132.045 19.5791C131.709 19.9618 131.541 20.5451 131.541 21.3291C131.541 22.1131 131.709 22.7011 132.045 23.0931C132.39 23.4758 132.838 23.6671 133.389 23.6671ZM141.357 25.0111C140.75 25.0111 140.19 24.9411 139.677 24.8011C139.173 24.6518 138.748 24.4464 138.403 24.1851L138.893 23.0091C139.247 23.2518 139.639 23.4384 140.069 23.5691C140.498 23.6998 140.932 23.7651 141.371 23.7651C141.837 23.7651 142.183 23.6858 142.407 23.5271C142.64 23.3684 142.757 23.1538 142.757 22.8831C142.757 22.6684 142.682 22.5004 142.533 22.3791C142.393 22.2484 142.164 22.1504 141.847 22.0851L140.447 21.8191C139.849 21.6884 139.392 21.4644 139.075 21.1471C138.767 20.8298 138.613 20.4144 138.613 19.9011C138.613 19.4624 138.729 19.0751 138.963 18.7391C139.205 18.4031 139.546 18.1418 139.985 17.9551C140.433 17.7591 140.955 17.6611 141.553 17.6611C142.075 17.6611 142.565 17.7311 143.023 17.8711C143.489 18.0111 143.881 18.2211 144.199 18.5011L143.695 19.6351C143.405 19.4018 143.074 19.2198 142.701 19.0891C142.327 18.9584 141.963 18.8931 141.609 18.8931C141.123 18.8931 140.769 18.9818 140.545 19.1591C140.321 19.3271 140.209 19.5464 140.209 19.8171C140.209 20.0224 140.274 20.1951 140.405 20.3351C140.545 20.4658 140.759 20.5638 141.049 20.6291L142.449 20.8951C143.074 21.0164 143.545 21.2311 143.863 21.5391C144.189 21.8378 144.353 22.2484 144.353 22.7711C144.353 23.2378 144.227 23.6391 143.975 23.9751C143.723 24.3111 143.373 24.5678 142.925 24.7451C142.477 24.9224 141.954 25.0111 141.357 25.0111ZM145.85 24.8711V14.5671H147.6V19.2151H147.404C147.619 18.7111 147.95 18.3284 148.398 18.0671C148.846 17.7964 149.36 17.6611 149.938 17.6611C150.778 17.6611 151.404 17.8991 151.814 18.3751C152.225 18.8418 152.43 19.5558 152.43 20.5171V24.8711H150.68V20.6011C150.68 20.0504 150.573 19.6538 150.358 19.4111C150.153 19.1591 149.822 19.0331 149.364 19.0331C148.832 19.0331 148.403 19.2011 148.076 19.5371C147.759 19.8638 147.6 20.3024 147.6 20.8531V24.8711H145.85ZM157.478 25.0111C156.75 25.0111 156.12 24.8618 155.588 24.5631C155.056 24.2644 154.641 23.8398 154.342 23.2891C154.053 22.7384 153.908 22.0851 153.908 21.3291C153.908 20.5731 154.053 19.9244 154.342 19.3831C154.641 18.8324 155.056 18.4078 155.588 18.1091C156.12 17.8104 156.75 17.6611 157.478 17.6611C158.206 17.6611 158.836 17.8104 159.368 18.1091C159.909 18.4078 160.325 18.8324 160.614 19.3831C160.913 19.9244 161.062 20.5731 161.062 21.3291C161.062 22.0851 160.913 22.7384 160.614 23.2891C160.325 23.8398 159.909 24.2644 159.368 24.5631C158.836 24.8618 158.206 25.0111 157.478 25.0111ZM157.478 23.6671C158.029 23.6671 158.467 23.4758 158.794 23.0931C159.121 22.7011 159.284 22.1131 159.284 21.3291C159.284 20.5451 159.121 19.9618 158.794 19.5791C158.467 19.1964 158.029 19.0051 157.478 19.0051C156.927 19.0051 156.489 19.1964 156.162 19.5791C155.835 19.9618 155.672 20.5451 155.672 21.3291C155.672 22.1131 155.835 22.7011 156.162 23.0931C156.489 23.4758 156.927 23.6671 157.478 23.6671ZM165.527 25.0111C164.687 25.0111 164.052 24.7918 163.623 24.3531C163.193 23.9144 162.979 23.2564 162.979 22.3791V19.1171H161.621V17.8011H162.979V15.9951L164.729 15.5471V17.8011H166.619V19.1171H164.729V22.2671C164.729 22.7524 164.822 23.0931 165.009 23.2891C165.195 23.4851 165.452 23.5831 165.779 23.5831C165.956 23.5831 166.105 23.5691 166.227 23.5411C166.357 23.5131 166.483 23.4758 166.605 23.4291V24.8151C166.446 24.8804 166.269 24.9271 166.073 24.9551C165.886 24.9924 165.704 25.0111 165.527 25.0111Z" fill="white"/>
<defs>
<linearGradient id="paint0_linear_1_2463" x1="1.59235" y1="2.45442" x2="183.168" y2="38.0137" gradientUnits="userSpaceOnUse">
<stop stop-color="#07A5FF"/>
<stop offset="0.473958" stop-color="#0560FC"/>
<stop offset="1" stop-color="#4135FF"/>
</linearGradient>
<linearGradient id="paint1_linear_1_2463" x1="19.1328" y1="17.6904" x2="24.857" y2="14.354" gradientUnits="userSpaceOnUse">
<stop stop-color="#A52714" stop-opacity="0.6"/>
<stop offset="0.7" stop-color="#A52714" stop-opacity="0"/>
</linearGradient>
<linearGradient id="paint2_linear_1_2463" x1="28.0298" y1="27.4488" x2="21.6623" y2="23.7199" gradientUnits="userSpaceOnUse">
<stop stop-color="#055524" stop-opacity="0.4"/>
<stop offset="0.3" stop-color="#055524" stop-opacity="0"/>
</linearGradient>
<linearGradient id="paint3_linear_1_2463" x1="29.3382" y1="14.9432" x2="30.941" y2="21.9539" gradientUnits="userSpaceOnUse">
<stop stop-color="#EA6100" stop-opacity="0.3"/>
<stop offset="0.7" stop-color="#EA6100" stop-opacity="0"/>
</linearGradient>
<radialGradient id="paint4_radial_1_2463" cx="0" cy="0" r="1" gradientUnits="userSpaceOnUse" gradientTransform="translate(25.9908 15.5101) scale(9.16958)">
<stop stop-color="#3E2723" stop-opacity="0.2"/>
<stop offset="1" stop-color="#3E2723" stop-opacity="0"/>
</radialGradient>
<radialGradient id="paint5_radial_1_2463" cx="0" cy="0" r="1" gradientUnits="userSpaceOnUse" gradientTransform="translate(18.326 14.6919) scale(8.50448)">
<stop stop-color="#3E2723" stop-opacity="0.2"/>
<stop offset="1" stop-color="#3E2723" stop-opacity="0"/>
</radialGradient>
<radialGradient id="paint6_radial_1_2463" cx="0" cy="0" r="1" gradientUnits="userSpaceOnUse" gradientTransform="translate(26.3835 19.8816) scale(9.5839)">
<stop stop-color="#263238" stop-opacity="0.2"/>
<stop offset="1" stop-color="#263238" stop-opacity="0"/>
</radialGradient>
<radialGradient id="paint7_radial_1_2463" cx="0" cy="0" r="1" gradientUnits="userSpaceOnUse" gradientTransform="translate(19.678 12.893) scale(19.2768)">
<stop stop-color="white" stop-opacity="0.1"/>
<stop offset="1" stop-color="white" stop-opacity="0"/>
</radialGradient>
</defs>
</svg>
